<?xml version="1.0" encoding="UTF-8" standalone="no"?>
<!-- Created with Inkscape (http://www.inkscape.org/) -->

<svg
   xmlns:dc="http://purl.org/dc/elements/1.1/"
   xmlns:cc="http://creativecommons.org/ns#"
   xmlns:rdf="http://www.w3.org/1999/02/22-rdf-syntax-ns#"
   xmlns:svg="http://www.w3.org/2000/svg"
   xmlns="http://www.w3.org/2000/svg"
   xmlns:xlink="http://www.w3.org/1999/xlink"
   xmlns:sodipodi="http://sodipodi.sourceforge.net/DTD/sodipodi-0.dtd"
   xmlns:inkscape="http://www.inkscape.org/namespaces/inkscape"
   id="svg2"
   version="1.1"
   inkscape:version="0.48.4 r9939"
   width="90"
   height="90"
   xml:space="preserve"
   sodipodi:docname="icono_guaguas_las_palmas.svg"
   inkscape:export-filename="/home/diego/Proyectos/GuaguasLasPalmas/icono_guaguas_las_palmas.png"
   inkscape:export-xdpi="681.30579"
   inkscape:export-ydpi="681.30579"><sodipodi:namedview
     pagecolor="#ffffff"
     bordercolor="#666666"
     borderopacity="1"
     objecttolerance="10"
     gridtolerance="10"
     guidetolerance="10"
     inkscape:pageopacity="0"
     inkscape:pageshadow="2"
     inkscape:window-width="1920"
     inkscape:window-height="1028"
     id="namedview4"
     showgrid="false"
     inkscape:zoom="7.4167645"
     inkscape:cx="37.120498"
     inkscape:cy="46.415681"
     inkscape:window-x="-2"
     inkscape:window-y="-3"
     inkscape:window-maximized="1"
     inkscape:current-layer="layer1" /><metadata
     id="metadata8"><rdf:RDF><cc:Work
         rdf:about=""><dc:format>image/svg+xml</dc:format><dc:type
           rdf:resource="http://purl.org/dc/dcmitype/StillImage" /><dc:title /></cc:Work></rdf:RDF></metadata><defs
     id="defs6"><linearGradient
       inkscape:collect="always"
       id="linearGradient4718"><stop
         style="stop-color:#000000;stop-opacity:1;"
         offset="0"
         id="stop4720" /><stop
         style="stop-color:#000000;stop-opacity:0;"
         offset="1"
         id="stop4722" /></linearGradient><clipPath
       id="clipPath16"
       clipPathUnits="userSpaceOnUse"><path
         id="path18"
         d="M 0,72 72,72 72,0 0,0 0,72 z" /></clipPath><clipPath
       id="clipPath28"
       clipPathUnits="userSpaceOnUse"><path
         id="path30"
         d="M 0,72 72,72 72,0 0,0 0,72 z" /></clipPath><clipPath
       id="clipPath40"
       clipPathUnits="userSpaceOnUse"><path
         id="path42"
         d="M 0,72 72,72 72,0 0,0 0,72 z" /></clipPath><clipPath
       id="clipPath52"
       clipPathUnits="userSpaceOnUse"><path
         id="path54"
         d="M 0,72 72,72 72,0 0,0 0,72 z" /></clipPath><linearGradient
       inkscape:collect="always"
       xlink:href="#linearGradient4718"
       id="linearGradient4724"
       x1="36.991524"
       y1="34.89407"
       x2="79.801384"
       y2="77.703926"
       gradientUnits="userSpaceOnUse" /><clipPath
       clipPathUnits="userSpaceOnUse"
       id="clipPath4738"><g
         transform="matrix(1.25,0,0,-1.25,0,90)"
         id="g4740"><g
           id="g4742"
           clip-path="url(#clipPath52)"><g
             id="g4744"
             transform="translate(57,9)"><path
               d="m 0,0 -42,0 c -3.314,0 -6,2.686 -6,6 l 0,42 c 0,3.314 2.686,6 6,6 l 42,0 c 3.314,0 6,-2.686 6,-6 L 6,6 C 6,2.686 3.314,0 0,0"
               style="fill:#5677fc;fill-opacity:1;fill-rule:nonzero;stroke:none"
               id="path4746"
               inkscape:connector-curvature="0" /></g></g></g></clipPath><clipPath
       clipPathUnits="userSpaceOnUse"
       id="clipPath4748"><g
         transform="matrix(1.25,0,0,-1.25,0,90)"
         id="g4750"><g
           id="g4752"
           clip-path="url(#clipPath52)"><g
             id="g4754"
             transform="translate(57,9)"><path
               d="m 0,0 -42,0 c -3.314,0 -6,2.686 -6,6 l 0,42 c 0,3.314 2.686,6 6,6 l 42,0 c 3.314,0 6,-2.686 6,-6 L 6,6 C 6,2.686 3.314,0 0,0"
               style="fill:#5677fc;fill-opacity:1;fill-rule:nonzero;stroke:none"
               id="path4756"
               inkscape:connector-curvature="0" /></g></g></g></clipPath><clipPath
       clipPathUnits="userSpaceOnUse"
       id="clipPath4758"><g
         transform="matrix(1.25,0,0,-1.25,0,90)"
         id="g4760"><g
           id="g4762"
           clip-path="url(#clipPath52)"><g
             id="g4764"
             transform="translate(57,9)"><path
               d="m 0,0 -42,0 c -3.314,0 -6,2.686 -6,6 l 0,42 c 0,3.314 2.686,6 6,6 l 42,0 c 3.314,0 6,-2.686 6,-6 L 6,6 C 6,2.686 3.314,0 0,0"
               style="fill:#5677fc;fill-opacity:1;fill-rule:nonzero;stroke:none"
               id="path4766"
               inkscape:connector-curvature="0" /></g></g></g></clipPath></defs><g
     transform="matrix(1.25,0,0,-1.25,0,90)"
     inkscape:label="ic_action"
     inkscape:groupmode="layer"
     id="g10"><g
       id="g48"
       transform="translate(0,-0.53931873)"><g
         clip-path="url(#clipPath52)"
         id="g50"><g
           transform="translate(57,9)"
           id="g56"><path
             id="path58"
             style="fill:#5677fc;fill-opacity:1;fill-rule:nonzero;stroke:none"
             d="m 0,0 -42,0 c -3.314,0 -6,2.686 -6,6 l 0,42 c 0,3.314 2.686,6 6,6 l 42,0 c 3.314,0 6,-2.686 6,-6 L 6,6 C 6,2.686 3.314,0 0,0"
             inkscape:connector-curvature="0" /></g></g></g><path
       style="opacity:0.22000002;fill:url(#linearGradient4724);fill-opacity:1"
       d="m 45.28125,22.53125 c -2.41316,0 -4.712739,0.09116 -6.8125,0.3125 -0.537503,0.05666 -1.053357,0.109352 -1.5625,0.1875 -1.498869,0.230061 -2.863922,0.566284 -4.0625,1.03125 -0.799052,0.309977 -1.520797,0.683713 -2.15625,1.125 -0.317727,0.220643 -0.602694,0.461243 -0.875,0.71875 -0.272306,0.257507 -0.526128,0.515439 -0.75,0.8125 -0.229558,0.302344 -0.417758,0.622423 -0.59375,0.96875 -0.08621,0.169653 -0.177215,0.319281 -0.25,0.5 -0.0035,0.0087 0.0035,0.02255 0,0.03125 -0.0685,0.172217 -0.131467,0.348735 -0.1875,0.53125 -0.003,0.0096 0.0029,0.02164 0,0.03125 -0.05542,0.183206 -0.113654,0.368675 -0.15625,0.5625 -0.0022,0.01001 0.0022,0.02122 0,0.03125 -0.130394,0.603829 -0.21875,1.256549 -0.21875,1.96875 l 0,22.0625 c 0,0.758197 0.142036,1.455807 0.375,2.125 0.07182,0.206293 0.159105,0.430225 0.25,0.625 0.0057,0.01236 0.0255,0.01894 0.03125,0.03125 0.09159,0.192836 0.172321,0.382565 0.28125,0.5625 0.120141,0.200423 0.235249,0.379749 0.375,0.5625 0.0085,0.01123 0.02271,0.02009 0.03125,0.03125 0.0085,0.01123 0.02271,0.02009 0.03125,0.03125 0.01688,0.02272 0.04534,0.04006 0.0625,0.0625 0.0089,0.01178 0.0223,0.01955 0.03125,0.03125 0.01768,0.02384 0.04451,0.03897 0.0625,0.0625 0.05139,0.06238 0.102652,0.127566 0.15625,0.1875 0.03509,0.0381 0.05778,0.08796 0.09375,0.125 0.01038,0.01085 0.0208,0.02049 0.03125,0.03125 0.03103,0.03323 0.06205,0.06135 0.09375,0.09375 0.01038,0.01085 0.0208,0.02049 0.03125,0.03125 0.0099,0.01053 0.02126,0.02081 0.03125,0.03125 0.02938,0.03212 0.06375,0.06238 0.09375,0.09375 0.01044,0.0099 0.02075,0.02143 0.03125,0.03125 0.01045,0.01076 0.02072,0.02058 0.03125,0.03125 0.02825,0.0245 0.06508,0.03861 0.09375,0.0625 0.0051,0.0054 -0.0051,0.02589 0,0.03125 l 0,3.9375 c 0,0.165321 0.0046,0.318067 0.03125,0.46875 0.05172,0.312731 0.158014,0.57278 0.3125,0.8125 0.0072,0.01165 0.02386,0.01978 0.03125,0.03125 0.02322,0.03774 0.06826,0.05795 0.09375,0.09375 0.04744,0.06045 0.0709,0.133401 0.125,0.1875 0.01058,0.01058 0.02042,0.02092 0.03125,0.03125 0.0095,0.0095 0.0215,0.0219 0.03125,0.03125 0.0095,0.0095 0.0215,0.0219 0.03125,0.03125 0.01024,0.01073 0.02076,0.02076 0.03125,0.03125 0.01058,0.01058 0.02042,0.02092 0.03125,0.03125 0.01953,0.02036 0.04208,0.04302 0.0625,0.0625 0.01965,0.0205 0.04195,0.0429 0.0625,0.0625 0.031,0.0325 0.06052,0.0635 0.09375,0.09375 0.03037,0.03174 0.06124,0.06417 0.09375,0.09375 0.02632,0.02758 0.06582,0.03654 0.09375,0.0625 0.04191,0.0451 0.0789,0.08413 0.125,0.125 0.04121,0.04418 0.07975,0.08489 0.125,0.125 0.04062,0.04342 0.08047,0.08552 0.125,0.125 0.05226,0.05627 0.09751,0.106583 0.15625,0.15625 0.06108,0.06529 0.117667,0.131211 0.1875,0.1875 0.0704,0.08925 0.165203,0.174825 0.25,0.25 0.05523,0.0623 0.09336,0.132903 0.15625,0.1875 0.05897,0.06793 0.119573,0.128535 0.1875,0.1875 0.0532,0.06128 0.126987,0.102241 0.1875,0.15625 0.07646,0.09486 0.157085,0.171443 0.25,0.25 0.07584,0.08821 0.15927,0.176866 0.25,0.25 0.05955,0.06672 0.119126,0.129692 0.1875,0.1875 0.07318,0.08655 0.131392,0.177689 0.21875,0.25 0.07657,0.0925 0.157503,0.173435 0.25,0.25 0.07657,0.0925 0.157503,0.173435 0.25,0.25 0.07756,0.0937 0.187342,0.172654 0.28125,0.25 0.08589,0.106555 0.174695,0.19536 0.28125,0.28125 0.128834,0.159832 0.263138,0.293883 0.4375,0.40625 0.0053,0.0054 -0.0053,0.02592 0,0.03125 0.0078,0.0049 0.02338,-0.0048 0.03125,0 0.03073,0.03001 0.06101,0.06583 0.09375,0.09375 0.101233,0.135378 0.211022,0.23958 0.34375,0.34375 0.09489,0.1209 0.1916,0.217612 0.3125,0.3125 0.09392,0.119664 0.193087,0.249557 0.3125,0.34375 0.101849,0.132583 0.211167,0.241901 0.34375,0.34375 0.101849,0.132583 0.211167,0.241901 0.34375,0.34375 0.106942,0.139212 0.234261,0.238508 0.375,0.34375 0.105242,0.140739 0.204538,0.268058 0.34375,0.375 0.109067,0.144427 0.261251,0.266572 0.40625,0.375 0.110254,0.147441 0.227559,0.264746 0.375,0.375 0.112903,0.150985 0.254403,0.294314 0.40625,0.40625 0.114263,0.152803 0.220877,0.29347 0.375,0.40625 0.11901,0.162636 0.274066,0.319391 0.4375,0.4375 0.139492,0.190626 0.300121,0.339939 0.5,0.46875 0.129099,0.160507 0.262562,0.324762 0.4375,0.4375 0.129099,0.160507 0.262562,0.324762 0.4375,0.4375 0.132018,0.168209 0.25605,0.320566 0.4375,0.4375 0.137316,0.183631 0.274542,0.343594 0.46875,0.46875 0.137316,0.183631 0.274542,0.343594 0.46875,0.46875 0.115547,0.15452 0.249969,0.292684 0.40625,0.40625 0.149822,0.232483 0.330017,0.412678 0.5625,0.5625 0.142054,0.199489 0.293034,0.366622 0.5,0.5 0.125666,0.176475 0.291846,0.312323 0.46875,0.4375 0.151724,0.242834 0.322268,0.438934 0.5625,0.59375 0.146225,0.215775 0.311525,0.38965 0.53125,0.53125 0.146225,0.215775 0.311525,0.38965 0.53125,0.53125 0.146603,0.217392 0.341526,0.420095 0.5625,0.5625 0.146603,0.217392 0.341526,0.420095 0.5625,0.5625 0.149822,0.232483 0.330017,0.412678 0.5625,0.5625 0.149822,0.232483 0.361267,0.443928 0.59375,0.59375 0.149822,0.232483 0.330017,0.412678 0.5625,0.5625 0.152594,0.248067 0.380893,0.467687 0.625,0.625 0.152594,0.248067 0.349643,0.436437 0.59375,0.59375 0.15986,0.25988 0.39637,0.49639 0.65625,0.65625 0.159668,0.258564 0.366096,0.46574 0.625,0.625 0.163593,0.265948 0.388135,0.464021 0.65625,0.625 0.166031,0.278541 0.377709,0.490219 0.65625,0.65625 0.166031,0.278541 0.377709,0.490219 0.65625,0.65625 0.166031,0.278541 0.408959,0.521469 0.6875,0.6875 0.170774,0.286499 0.398025,0.489113 0.6875,0.65625 0.17178,0.297516 0.389984,0.51572 0.6875,0.6875 0.17178,0.297516 0.421234,0.54697 0.71875,0.71875 0.174101,0.301536 0.384421,0.54655 0.6875,0.71875 0.174496,0.30712 0.41163,0.544254 0.71875,0.71875 0.174496,0.30712 0.44288,0.575504 0.75,0.75 0.179088,0.315202 0.431604,0.543632 0.75,0.71875 0.179608,0.32656 0.42344,0.570392 0.75,0.75 0.179608,0.32656 0.42344,0.570392 0.75,0.75 0.179608,0.32656 0.45469,0.601642 0.78125,0.78125 0.179608,0.32656 0.45469,0.601642 0.78125,0.78125 0.184284,0.345345 0.466874,0.597321 0.8125,0.78125 0.179108,0.336566 0.448611,0.597211 0.78125,0.78125 0.186273,0.368127 0.447921,0.652942 0.8125,0.84375 0.183946,0.351466 0.463036,0.626017 0.8125,0.8125 0.186472,0.356293 0.487457,0.657278 0.84375,0.84375 0.186472,0.356293 0.487457,0.657279 0.84375,0.84375 0.190808,0.36458 0.506873,0.65748 0.875,0.84375 0.190507,0.37649 0.467257,0.65324 0.84375,0.84375 0.190507,0.37649 0.498507,0.68449 0.875,0.875 0.19474,0.38486 0.517705,0.68502 0.90625,0.875 0.19617,0.40121 0.471892,0.71255 0.875,0.90625 0.196693,0.39234 0.50932,0.71552 0.90625,0.90625 0.196693,0.39234 0.50932,0.71552 0.90625,0.90625 0.19574,0.40735 0.498899,0.71051 0.90625,0.90625 0.19574,0.40735 0.530149,0.74176 0.9375,0.9375 0.199818,0.41584 0.549025,0.74279 0.96875,0.9375 0.198679,0.42829 0.509209,0.73882 0.9375,0.9375 0.198679,0.42829 0.540459,0.77007 0.96875,0.96875 0.198679,0.42829 0.540459,0.77007 0.96875,0.96875 0.202652,0.43686 0.559122,0.77145 1,0.96875 0.203108,0.45384 0.512846,0.79966 0.96875,1 0.202253,0.46025 0.539754,0.79775 1,1 0.202253,0.46025 0.539754,0.79775 1,1 0.202253,0.46025 0.571004,0.829 1.03125,1.03125 0.202253,0.46025 0.571004,0.829 1.03125,1.03125 0.206069,0.46893 0.589355,0.83088 1.0625,1.03125 0.204076,0.48191 0.549342,0.82717 1.03125,1.03125 0.204076,0.48191 0.580593,0.85842 1.0625,1.0625 0.207787,0.49067 0.598737,0.86066 1.09375,1.0625 0.205448,0.50385 0.558648,0.85705 1.0625,1.0625 0.205448,0.50385 0.589898,0.8883 1.09375,1.09375 0.210793,0.51742 0.60093,0.92344 1.125,1.125 0.210854,0.51711 0.569889,0.89226 1.09375,1.09375 0.210854,0.51711 0.601139,0.92352 1.125,1.125 0.210854,0.51711 0.601139,0.92352 1.125,1.125 0.206651,0.53729 0.587706,0.91835 1.125,1.125 0.206651,0.5373 0.618956,0.9496 1.15625,1.15625 0.206651,0.53729 0.618956,0.9496 1.15625,1.15625 0.210063,0.54616 0.636727,0.95268 1.1875,1.15625 0.21019,0.56866 0.61411,0.95279 1.1875,1.15625 0.20666,0.58241 0.60509,0.98084 1.1875,1.1875 0.2038,0.57434 0.61738,1.00892 1.1875,1.21875 0.20982,0.57011 0.6444,0.98371 1.21875,1.1875 0.20619,0.58418 0.63518,1.01168 1.21875,1.21875 0.20678,0.58792 0.63048,1.04373 1.21875,1.25 0.20968,0.59798 0.64714,1.01612 1.25,1.21875 0.2057,0.61197 0.63803,1.0443 1.25,1.25 0.2057,0.61197 0.63803,1.0443 1.25,1.25 0.20658,0.61459 0.66523,1.07674 1.28125,1.28125 0.20876,0.62109 0.65517,1.04853 1.28125,1.25 0.20442,0.63526 0.64599,1.07683 1.28125,1.28125 0.20531,0.63801 0.67299,1.10942 1.3125,1.3125 0.20738,0.64445 0.66295,1.08141 1.3125,1.28125 0.20269,0.65881 0.65369,1.10981 1.3125,1.3125 0.20411,0.66344 0.67773,1.1435 1.34375,1.34375 0.2035,0.66146 0.64956,1.14245 1.3125,1.34375 0.20211,0.66559 0.67816,1.14164 1.34375,1.34375 0.20492,0.67487 0.69489,1.14669 1.375,1.34375 0.20385,0.67798 0.69289,1.17736 1.375,1.375 0.20385,0.67798 0.69289,1.17736 1.375,1.375 0.20053,0.68734 0.68689,1.17562 1.375,1.375 0.20064,0.69245 0.7121,1.17693 1.40625,1.375 0.19696,0.71359 0.69266,1.20929 1.40625,1.40625 0.19873,0.72001 0.71379,1.24444 1.4375,1.4375 0.20075,0.70352 0.69907,1.21105 1.40625,1.40625 0.19393,0.7215 0.71889,1.23915 1.4375,1.4375 0.19559,0.73318 0.73382,1.24461 1.46875,1.4375 0.19368,0.73797 0.69953,1.24382 1.4375,1.4375 0.19129,0.75935 0.73945,1.27933 1.5,1.46875 0.18993,0.76259 0.70616,1.27882 1.46875,1.46875 0.19061,0.76532 0.70182,1.3119 1.46875,1.5 0.18877,0.76967 0.73033,1.31123 1.5,1.5 0.18877,0.76967 0.73033,1.31123 1.5,1.5 0.19112,0.77925 0.74631,1.31784 1.53125,1.5 0.1844,0.79459 0.73665,1.34685 1.53125,1.53125 0.18707,0.78855 0.74045,1.34773 1.53125,1.53125 0.18664,0.80425 0.75246,1.35384 1.5625,1.53125 0.17945,0.80559 0.72977,1.37651 1.53125,1.5625 0.18123,0.81613 0.77626,1.38346 1.59375,1.5625 0.18161,0.8153 0.74553,1.38357 1.5625,1.5625 0.18129,0.82773 0.76121,1.38896 1.59375,1.5625 0.1742,0.84517 0.74858,1.41955 1.59375,1.59375 0.17435,0.84589 0.74742,1.45136 1.59375,1.625 0.17163,0.83653 0.76354,1.41192 1.59375,1.59375 0.16525,0.86727 0.7946,1.4818 1.65625,1.65625 0.17421,0.84913 0.77461,1.45283 1.625,1.625 0.17457,0.86228 0.78796,1.46026 1.65625,1.625 0.16662,0.87817 0.77808,1.48963 1.65625,1.65625 0.16662,0.87817 0.77808,1.48963 1.65625,1.65625 0.16849,0.88805 0.79335,1.49786 1.6875,1.65625 0.16015,0.9041 0.7834,1.52735 1.6875,1.6875 0.16015,0.9041 0.7834,1.52735 1.6875,1.6875 0.1618,0.91337 0.79962,1.53536 1.71875,1.6875 0.15316,0.93039 0.78836,1.56559 1.71875,1.71875 0.15316,0.93039 0.78836,1.56559 1.71875,1.71875 0.15477,0.94019 0.80367,1.57439 1.75,1.71875 0.14566,0.9569 0.7931,1.60434 1.75,1.75 0.14591,0.95647 0.79337,1.60438 1.75,1.75 0.1472,0.96704 0.80782,1.61377 1.78125,1.75 0.13831,0.96981 0.78518,1.63438 1.75,1.78125 0.14837,0.97466 0.82658,1.6523 1.8125,1.78125 0.13977,0.98 0.79985,1.6439 1.78125,1.78125 0.1392,0.99465 0.81086,1.68546 1.8125,1.8125 0.13908,0.99384 0.81218,1.65342 1.8125,1.78125 0.12914,1.01059 0.80191,1.68336 1.8125,1.8125 0.12212,1.02219 0.82608,1.7137 1.84375,1.84375 0.13013,1.01831 0.82052,1.72227 1.84375,1.84375 0.13013,1.01831 0.82052,1.72227 1.84375,1.84375 0.11942,1.03887 0.83656,1.72356 1.875,1.84375 0.11348,1.04841 0.83075,1.75413 1.875,1.875 0.11405,1.05965 0.84446,1.76477 1.90625,1.875 0.11057,1.06513 0.80987,1.76443 1.875,1.875 0.10392,1.0755 0.83481,1.79502 1.90625,1.90625 0.10493,1.08595 0.8489,1.80612 1.9375,1.90625 0.10051,1.09272 0.81353,1.80574 1.90625,1.90625 0.0948,1.10141 0.8395,1.8365 1.9375,1.9375 0.101,1.098 0.83608,1.84271 1.9375,1.9375 0.0888,1.11045 0.83403,1.836 1.9375,1.9375 0.0892,1.12196 0.84706,1.87908 1.96875,1.96875 0.0892,1.12196 0.84706,1.87908 1.96875,1.96875 0.0951,1.19613 0.97299,2 2.21875,2 l 2.1875,0 c 1.32257,0 2.21875,-0.89618 2.21875,-2.21875 l 0,-2.1875 14.46875,0 c 0.31929,0.24849 0.71893,0.40004 1.1875,0.4375 0.0892,1.12196 0.84706,1.87908 1.96875,1.96875 0.0951,1.19613 0.94174,2 2.1875,2 l 2.21875,0 c 1.32256,0 2.21875,-0.89618 2.21875,-2.21875 l 0,-3.96875 c 1.32257,-1.10214 2.1875,-2.85989 2.1875,-4.84375 l 0,-22.03125 c 0,-2.93917 -1.16281,-4.92567 -3.125,-6.25 -0.48877,-0.75273 -1.11246,-1.37671 -1.875,-1.90625 -0.50655,-0.80416 -1.21852,-1.44546 -2.03125,-2 -0.50071,-0.77111 -1.15001,-1.43138 -1.9375,-1.96875 -0.49297,-0.75781 -1.16693,-1.37472 -1.9375,-1.90625 -0.50943,-0.79029 -1.15978,-1.45384 -1.96875,-2 -0.49571,-0.74563 -1.13847,-1.38233 -1.90625,-1.90625 -0.49707,-0.75233 -1.13326,-1.37877 -1.90625,-1.90625 -0.50446,-0.76351 -1.14919,-1.40529 -1.9375,-1.9375 -0.48014,-0.71174 -1.08173,-1.33627 -1.8125,-1.84375 -0.48643,-0.741 -1.12147,-1.35172 -1.875,-1.875 -0.49846,-0.75932 -1.1591,-1.37508 -1.9375,-1.90625 -0.48014,-0.71174 -1.08173,-1.33627 -1.8125,-1.84375 -0.48294,-0.72438 -1.13435,-1.32941 -1.875,-1.84375 -0.48223,-0.72112 -1.10565,-1.33118 -1.84375,-1.84375 -0.49362,-0.73568 -1.115,-1.35638 -1.875,-1.875 -0.47652,-0.69621 -1.0627,-1.28226 -1.78125,-1.78125 -0.48014,-0.71174 -1.08173,-1.30502 -1.8125,-1.8125 -0.48014,-0.71174 -1.08173,-1.30502 -1.8125,-1.8125 -0.47768,-0.70109 -1.05885,-1.31083 -1.78125,-1.8125 -0.45937,-0.66825 -1.0665,-1.23317 -1.75,-1.71875 -0.48616,-0.72456 -1.09891,-1.33001 -1.84375,-1.84375 -0.47275,-0.68082 -1.04367,-1.25949 -1.75,-1.75 -0.47275,-0.68082 -1.04367,-1.29074 -1.75,-1.78125 -0.47041,-0.67165 -1.051,-1.26458 -1.75,-1.75 -0.4535,-0.64597 -1.02172,-1.18326 -1.6875,-1.65625 -0.45991,-0.67194 -1.03284,-1.23103 -1.71875,-1.71875 -0.44379,-0.64838 -1.00151,-1.17985 -1.65625,-1.65625 -0.46207,-0.69098 -1.05226,-1.2824 -1.75,-1.78125 -0.4533,-0.65658 -1.01707,-1.20789 -1.6875,-1.6875 -0.44507,-0.64466 -1.00161,-1.18243 -1.65625,-1.65625 -0.44881,-0.65752 -1.02226,-1.20642 -1.6875,-1.6875 -0.45782,-0.66312 -1.03961,-1.23601 -1.71875,-1.71875 -0.44962,-0.63287 -1.00128,-1.19069 -1.65625,-1.65625 -0.43286,-0.60928 -0.9701,-1.10872 -1.59375,-1.5625 -0.44797,-0.64513 -0.99777,-1.21395 -1.65625,-1.6875 -0.44585,-0.62927 -0.97636,-1.19223 -1.625,-1.65625 -0.43399,-0.60568 -0.97027,-1.14248 -1.59375,-1.59375 -0.43026,-0.60796 -0.9739,-1.10908 -1.59375,-1.5625 -0.42433,-0.60585 -0.9509,-1.10933 -1.5625,-1.5625 -0.43235,-0.62454 -0.96401,-1.16139 -1.59375,-1.625 -0.43003,-0.60875 -0.97384,-1.13978 -1.59375,-1.59375 -0.41436,-0.57974 -0.94305,-1.09321 -1.53125,-1.53125 -0.43561,-0.61869 -0.9938,-1.13448 -1.625,-1.59375 -0.41063,-0.56985 -0.88923,-1.06781 -1.46875,-1.5 -0.43003,-0.60875 -0.97384,-1.13978 -1.59375,-1.59375 -0.42094,-0.57923 -0.93518,-1.09473 -1.53125,-1.53125 -0.40514,-0.55748 -0.90101,-1.01255 -1.46875,-1.4375 -0.41988,-0.59101 -0.93151,-1.11811 -1.53125,-1.5625 -0.41244,-0.56753 -0.91922,-1.06966 -1.5,-1.5 -0.4005,-0.55111 -0.87799,-1.01601 -1.4375,-1.4375 -0.41251,-0.57571 -0.91575,-1.09553 -1.5,-1.53125 -0.40485,-0.55241 -0.90341,-1.04713 -1.46875,-1.46875 -0.38391,-0.52383 -0.8776,-0.93792 -1.40625,-1.34375 -0.40779,-0.57555 -0.89036,-1.09479 -1.46875,-1.53125 -0.40153,-0.54872 -0.90894,-1.01779 -1.46875,-1.4375 -0.3943,-0.53501 -0.86067,-1.0258 -1.40625,-1.4375 -0.38896,-0.53039 -0.86895,-0.96554 -1.40625,-1.375 -0.38227,-0.52602 -0.84749,-0.96741 -1.375,-1.375 -0.38832,-0.54114 -0.86552,-0.98938 -1.40625,-1.40625 -0.39927,-0.54941 -0.88017,-1.04818 -1.4375,-1.46875 -0.38602,-0.51222 -0.84822,-0.97748 -1.375,-1.375 -0.38602,-0.51222 -0.84822,-0.97748 -1.375,-1.375 -0.35994,-0.47761 -0.79848,-0.87253 -1.28125,-1.25 -0.39077,-0.53772 -0.86389,-1.02337 -1.40625,-1.4375 -0.34464,-0.45731 -0.76126,-0.85346 -1.21875,-1.21875 -0.38061,-0.53118 -0.87876,-0.9636 -1.40625,-1.375 -0.36,-0.48846 -0.79453,-0.89613 -1.28125,-1.28125 -0.35677,-0.49092 -0.79751,-0.89389 -1.28125,-1.28125 -0.37988,-0.52364 -0.85129,-0.99989 -1.375,-1.40625 -0.34647,-0.45973 -0.75826,-0.85199 -1.21875,-1.21875 -0.34034,-0.46438 -0.76394,-0.84774 -1.21875,-1.21875 -0.37601,-0.52477 -0.85553,-0.96722 -1.375,-1.375 -0.35124,-0.46607 -0.78165,-0.87941 -1.25,-1.25 -0.35124,-0.46607 -0.78165,-0.87941 -1.25,-1.25 -0.34647,-0.45973 -0.75826,-0.85199 -1.21875,-1.21875 -0.34254,-0.45453 -0.76468,-0.85515 -1.21875,-1.21875 -0.34254,-0.45453 -0.76468,-0.85515 -1.21875,-1.21875 C 134.87621,99.951721 134.45406,99.551096 134,99.1875 133.65994,98.73627 133.2625,98.361577 132.8125,98 c -0.33777,-0.448194 -0.74122,-0.827788 -1.1875,-1.1875 -0.33156,-0.439954 -0.72004,-0.801636 -1.15625,-1.15625 -0.32907,-0.436655 -0.72406,-0.834942 -1.15625,-1.1875 -0.32306,-0.428679 -0.73372,-0.777449 -1.15625,-1.125 -0.32306,-0.428679 -0.73372,-0.808699 -1.15625,-1.15625 -0.31646,-0.419913 -0.71301,-0.78301 -1.125,-1.125 -0.31646,-0.419913 -0.71301,-0.78301 -1.125,-1.125 -0.31646,-0.419913 -0.71301,-0.78301 -1.125,-1.125 -0.31168,-0.413578 -0.68933,-0.755818 -1.09375,-1.09375 -0.33777,-0.448194 -0.74122,-0.859038 -1.1875,-1.21875 -0.31629,-0.399522 -0.68827,-0.766923 -1.09375,-1.09375 -0.27788,-0.351 -0.62167,-0.642934 -0.96875,-0.9375 -0.33777,-0.448194 -0.74122,-0.859038 -1.1875,-1.21875 -0.30985,-0.386025 -0.66858,-0.74499 -1.0625,-1.0625 -0.26467,-0.32973 -0.57987,-0.626847 -0.90625,-0.90625 -0.32306,-0.428679 -0.73372,-0.777449 -1.15625,-1.125 -0.2989,-0.379692 -0.62064,-0.717159 -1,-1.03125 -0.30114,-0.380376 -0.68035,-0.716919 -1.0625,-1.03125 -0.25869,-0.324256 -0.55681,-0.599274 -0.875,-0.875 -0.33777,-0.448194 -0.74122,-0.859038 -1.1875,-1.21875 -0.2312,-0.279764 -0.50458,-0.507314 -0.78125,-0.75 -0.31832,-0.422391 -0.71004,-0.812682 -1.125,-1.15625 -0.24418,-0.303438 -0.51583,-0.55188 -0.8125,-0.8125 -0.31457,-0.417404 -0.71602,-0.753364 -1.125,-1.09375 -0.28862,-0.357258 -0.60762,-0.70185 -0.96875,-1 -0.27812,-0.337146 -0.59384,-0.653771 -0.9375,-0.9375 -0.28731,-0.348282 -0.61158,-0.677395 -0.96875,-0.96875 -0.24213,-0.288953 -0.5215,-0.532134 -0.8125,-0.78125 -0.29529,-0.370571 -0.62745,-0.72367 -1,-1.03125 -0.28032,-0.335232 -0.59183,-0.655518 -0.9375,-0.9375 -0.22937,-0.269976 -0.47751,-0.515171 -0.75,-0.75 -0.2877,-0.35843 -0.639602,-0.669586 -1,-0.96875 -0.263491,-0.313106 -0.554133,-0.60865 -0.875,-0.875 -0.258387,-0.307041 -0.53015,-0.612955 -0.84375,-0.875 -0.254508,-0.30028 -0.53616,-0.586727 -0.84375,-0.84375 -0.243393,-0.287165 -0.52049,-0.564959 -0.8125,-0.8125 -0.261799,-0.313081 -0.556058,-0.608491 -0.875,-0.875 -0.249945,-0.293523 -0.511649,-0.560459 -0.8125,-0.8125 C 94.342479,59.459778 94.103495,59.226588 93.84375,59 93.580263,58.677203 93.29203,58.399048 92.96875,58.125 92.723578,57.835735 92.450742,57.561569 92.15625,57.3125 91.918597,57.035849 91.658209,56.770777 91.375,56.53125 91.118527,56.232691 90.840649,55.94294 90.53125,55.6875 90.339746,55.471139 90.126346,55.286809 89.90625,55.09375 89.649876,54.784949 89.374248,54.482414 89.0625,54.21875 88.865274,53.992209 88.665707,53.763787 88.4375,53.5625 88.187863,53.26459 87.89528,53.005611 87.59375,52.75 87.389702,52.516313 87.174549,52.30054 86.9375,52.09375 86.726828,51.845782 86.497136,51.624487 86.25,51.40625 c -0.243393,-0.287165 -0.52049,-0.564959 -0.8125,-0.8125 -0.195822,-0.22124 -0.399298,-0.428109 -0.625,-0.625 -0.116311,-0.135037 -0.247643,-0.248978 -0.375,-0.375 C 84.136171,49.19391 83.763131,48.860274 83.375,48.53125 83.206864,48.343841 83.033597,48.169713 82.84375,48 c -0.227715,-0.268668 -0.479641,-0.516095 -0.75,-0.75 -0.197861,-0.222876 -0.396764,-0.426876 -0.625,-0.625 -0.207349,-0.235019 -0.415306,-0.479856 -0.65625,-0.6875 -0.19491,-0.216496 -0.401147,-0.432084 -0.625,-0.625 C 80.01193,45.117487 79.824112,44.925828 79.625,44.75 79.430527,44.530284 79.223947,44.320696 79,44.125 78.830728,43.935715 78.660119,43.765024 78.46875,43.59375 78.266041,43.361596 78.047784,43.143103 77.8125,42.9375 77.62726,42.731746 77.430164,42.528177 77.21875,42.34375 77.041908,42.14989 76.85656,41.95599 76.65625,41.78125 76.454571,41.560163 76.232106,41.352556 76,41.15625 75.877526,41.026844 75.758271,40.90186 75.625,40.78125 75.427209,40.557064 75.228398,40.324243 75,40.125 74.831707,39.942912 74.657955,39.758803 74.46875,39.59375 74.316795,39.430648 74.16886,39.27433 74,39.125 73.827552,38.935957 73.632276,38.7646 73.4375,38.59375 73.283133,38.427752 73.1406,38.245505 72.96875,38.09375 72.816795,37.930648 72.66886,37.77433 72.5,37.625 72.341524,37.453534 72.177043,37.28134 72,37.125 71.825085,36.938199 71.634601,36.762482 71.4375,36.59375 71.369804,36.524085 71.320904,36.442051 71.25,36.375 71.057942,36.155946 70.84618,35.945317 70.625,35.75 70.484217,35.601589 70.342474,35.449352 70.1875,35.3125 70.066643,35.185095 69.943841,35.056364 69.8125,34.9375 69.671854,34.786908 69.530101,34.638815 69.375,34.5 69.251701,34.369435 69.134272,34.246624 69,34.125 c -0.140646,-0.150592 -0.282399,-0.298685 -0.4375,-0.4375 -0.13082,-0.137908 -0.263161,-0.278336 -0.40625,-0.40625 -0.121677,-0.126622 -0.242875,-0.256887 -0.375,-0.375 -0.121677,-0.126622 -0.242875,-0.256887 -0.375,-0.375 C 67.292341,32.413828 67.185461,32.297549 67.0625,32.1875 66.929829,32.049438 66.801324,31.90921 66.65625,31.78125 66.603759,31.728297 66.554374,31.676419 66.5,31.625 c -0.162667,-0.176 -0.349032,-0.339927 -0.53125,-0.5 -0.04762,-0.04774 -0.07585,-0.109767 -0.125,-0.15625 -0.101168,-0.109018 -0.203751,-0.209662 -0.3125,-0.3125 -0.148536,-0.15863 -0.304161,-0.323197 -0.46875,-0.46875 -0.0423,-0.04212 -0.0815,-0.08386 -0.125,-0.125 -0.09174,-0.09755 -0.183376,-0.188696 -0.28125,-0.28125 -0.116331,-0.122915 -0.217671,-0.260028 -0.34375,-0.375 -0.06125,-0.0625 -0.123649,-0.127119 -0.1875,-0.1875 C 63.968997,29.055418 63.798239,28.899297 63.625,28.75 63.54897,28.67088 63.486377,28.575772 63.40625,28.5 63.3353,28.42667 63.261993,28.351694 63.1875,28.28125 63.11655,28.20792 63.043243,28.132944 62.96875,28.0625 62.840262,27.930986 62.702379,27.809739 62.5625,27.6875 62.50365,27.62764 62.46749,27.557912 62.40625,27.5 62.345,27.4375 62.282601,27.372881 62.21875,27.3125 62.19819,27.29179 62.1771,27.27048 62.15625,27.25 62.12409,27.22034 62.09529,27.1854 62.0625,27.15625 62.01109,27.10446 61.959459,27.050317 61.90625,27 61.88569,26.97929 61.8646,26.95798 61.84375,26.9375 61.81159,26.90784 61.78279,26.8729 61.75,26.84375 61.73965,26.83345 61.72918,26.82274 61.71875,26.8125 61.68633,26.78222 61.65808,26.7485 61.625,26.71875 61.60977,26.70361 61.57788,26.70252 61.5625,26.6875 61.53631,26.6632 61.52661,26.6177 61.5,26.59375 61.46244,26.55823 61.41344,26.53479 61.375,26.5 61.35887,26.48405 61.36006,26.45331 61.34375,26.4375 61.31291,26.40643 61.28149,26.37429 61.25,26.34375 c -0.0213,-0.01989 -0.04092,-0.04284 -0.0625,-0.0625 -0.02035,-0.01924 -0.04189,-0.04347 -0.0625,-0.0625 -0.0049,-0.0052 -0.02634,0.0052 -0.03125,0 -0.0053,-0.0056 0.0053,-0.02565 0,-0.03125 C 61.08354,26.17708 61.07278,26.16661 61.0625,26.15625 61.04165,26.13577 61.02114,26.11399 61,26.09375 60.98938,26.08385 60.97944,26.07236 60.96875,26.0625 60.95825,26.05232 60.94807,26.04137 60.9375,26.03125 60.92686,26.02135 60.91696,26.00988 60.90625,26 60.8957,25.99 60.88562,25.97867 60.875,25.96875 60.86467,25.95895 60.85415,25.94721 60.84375,25.9375 60.83343,25.9277 60.82289,25.91595 60.8125,25.90625 c -0.0059,-0.0056 -0.02531,0.0056 -0.03125,0 -0.19723,-0.186511 -0.403724,-0.364272 -0.625,-0.53125 -0.01853,-0.01389 -0.04381,-0.01749 -0.0625,-0.03125 -0.02394,-0.01774 -0.03829,-0.04498 -0.0625,-0.0625 C 60.02007,25.27335 60.01123,25.25786 60,25.25 59.97558,25.23264 59.96218,25.20464 59.9375,25.1875 59.768839,25.069624 59.555899,24.982994 59.375,24.875 59.23836,24.79413 59.112081,24.700486 58.96875,24.625 58.94817,24.61405 58.92697,24.60459 58.90625,24.59375 58.89477,24.58785 58.88652,24.56841 58.875,24.5625 58.526933,24.382277 58.166161,24.244523 57.78125,24.09375 57.76828,24.08865 57.76301,24.06755 57.75,24.0625 c -1.198578,-0.464966 -2.563631,-0.801189 -4.0625,-1.03125 -0.951488,-0.146044 -1.954305,-0.237186 -3,-0.3125 -1.700484,-0.12256 -3.528855,-0.1875 -5.40625,-0.1875 z"
       id="path3096"
       clip-path="url(#clipPath4738)"
       inkscape:connector-curvature="0"
       transform="matrix(0.8,0,0,-0.8,-0.32359126,71.352817)" /></g><g
     inkscape:label="Icon"
     id="layer1"
     inkscape:groupmode="layer"><path
       d="m 27.65678,53.393844 c 0,1.983854 0.881712,3.74728 2.204281,4.849421 v 3.967707 c 0,1.322569 0.881713,2.204282 2.204282,2.204282 h 2.204282 c 1.322569,0 2.204282,-0.881713 2.204282,-2.204282 V 60.00669 h 17.634255 v 2.204282 c 0,1.322569 0.881713,2.204282 2.204282,2.204282 h 2.204282 c 1.322569,0 2.204282,-0.881713 2.204282,-2.204282 v -3.967707 c 1.322569,-1.102141 2.204282,-2.865567 2.204282,-4.849421 V 31.351025 c 0,-7.714986 -7.935415,-8.817127 -17.634255,-8.817127 -9.698841,0 -17.634255,1.102141 -17.634255,8.817127 v 22.042819 z m 7.714986,2.204282 c -1.763425,0 -3.306423,-1.542997 -3.306423,-3.306423 0,-1.763425 1.542998,-3.306422 3.306423,-3.306422 1.763426,0 3.306423,1.542997 3.306423,3.306422 0,1.763426 -1.542997,3.306423 -3.306423,3.306423 z m 19.838537,0 c -1.763425,0 -3.306423,-1.542997 -3.306423,-3.306423 0,-1.763425 1.542998,-3.306422 3.306423,-3.306422 1.763426,0 3.306423,1.542997 3.306423,3.306422 0,1.763426 -1.542997,3.306423 -3.306423,3.306423 z M 58.516726,42.372435 H 32.065343 v -11.02141 h 26.451383 v 11.02141 z"
       id="path5330"
       inkscape:connector-curvature="0"
       style="fill:#ffffff"
       clip-path="url(#clipPath4758)"
       transform="translate(-0.67414841,0)" /><path
       style="fill:#000000"
       inkscape:connector-curvature="0"
       id="path3072"
       d="m 227.65678,253.39384 c 0,1.98386 0.88171,3.74728 2.20428,4.84942 v 3.96771 c 0,1.32257 0.88171,2.20428 2.20428,2.20428 h 2.20428 c 1.32257,0 2.20429,-0.88171 2.20429,-2.20428 v -2.20428 h 17.63425 v 2.20428 c 0,1.32257 0.88171,2.20428 2.20428,2.20428 h 2.20429 c 1.32256,0 2.20428,-0.88171 2.20428,-2.20428 v -3.96771 c 1.32257,-1.10214 2.20428,-2.86556 2.20428,-4.84942 v -22.04282 c 0,-7.71498 -7.93542,-8.81712 -17.63426,-8.81712 -9.69884,0 -17.63425,1.10214 -17.63425,8.81712 v 22.04282 z m 7.71499,2.20429 c -1.76343,0 -3.30643,-1.543 -3.30643,-3.30643 0,-1.76342 1.543,-3.30642 3.30643,-3.30642 1.76342,0 3.30642,1.543 3.30642,3.30642 0,1.76343 -1.543,3.30643 -3.30642,3.30643 z m 19.83853,0 c -1.76342,0 -3.30642,-1.543 -3.30642,-3.30643 0,-1.76342 1.543,-3.30642 3.30642,-3.30642 1.76343,0 3.30643,1.543 3.30643,3.30642 0,1.76343 -1.543,3.30643 -3.30643,3.30643 z m 3.30643,-13.2257 h -26.45139 v -11.02141 h 26.45139 v 11.02141 z"
       clip-path="url(#clipPath4748)" /></g></svg>